# xmcd
#
# Track frame offsets: 
#        150
#        22284
#        36501
#        51171
#        57730
#        63776
#        97234
#        108836
#        111653
#        131340
#        163241
#        182286
#        184746
#        211833
#
# Disc length: 3092 seconds
#
# Revision: 10
# Processed by: cddbd v1.5.1PL2 Copyright (c) Steve Scherf et al.
# Submitted via: ExactAudioCopy v0.95a5
#
DISCID=d10c120e
DTITLE=Pink Floyd - Is There Anybody Out There? - The Wall Live Disc 2
DYEAR=1900
DGENRE=
TTITLE0=Hey You
TTITLE1=Is There Anybody Out There?
TTITLE2=Nobody Home
TTITLE3=Vera
TTITLE4=Bring The Boys Back Home
TTITLE5=Comfortably Numb
TTITLE6=The Show Must Go On
TTITLE7=Mc - Atmos
TTITLE8=In The Flesh
TTITLE9=Run Like Hell
TTITLE10=Waiting For The Worms
TTITLE11=Stop
TTITLE12=The Trial
TTITLE13=Outside The Wall
EXTD=
EXTT0=
EXTT1=
EXTT2=
EXTT3=
EXTT4=
EXTT5=
EXTT6=
EXTT7=
EXTT8=
EXTT9=
EXTT10=
EXTT11=
EXTT12=
EXTT13=
PLAYORDER=
